<?xml version="1.0" encoding="UTF-8"?>
<svg id="Capa_1" data-name="Capa 1" xmlns="http://www.w3.org/2000/svg" viewBox="0 0 595.28 841.77">
  <defs>
    <style>
      .cls-1 {
        fill: #faf9f7;
      }

      .cls-2 {
        fill: #b8cb9c;
      }

      .cls-3 {
        fill: #a1bc98;
      }
    </style>
  </defs>
  <rect class="cls-1" width="594.94" height="841.77"/>
  <path class="cls-3" d="M595.28,357.68c-33.6,8.04-67.1,7.68-102.3-2.59-30.56-8.91-55.86-20.97-77.32-49.33-43.3-57.22-55.46-154.4-124.27-187.56-24.93-11.3-52.51-10.13-79.18-12.59-61.05-3.7-123.25-39.92-135.62-105.6h518.69v357.68Z"/>
  <ellipse class="cls-2" cx="208.5" cy="165.72" rx="27.5" ry="45.5" transform="translate(-39.27 263.43) rotate(-60)"/>
  <ellipse class="cls-2" cx="419.68" cy="287.65" rx="26.96" ry="41.57" transform="translate(-56.71 466.33) rotate(-54.99)"/>
  <path class="cls-3" d="M0,608.35c38.36-73.51,68.97-314.14.88-382.74l-.88,382.74Z"/>
  <path class="cls-3" d="M594.94,623.06c-120.19,7.63-93.67,92.32-158.04,162.04-45.81,50.38-113.85,10.15-163.57,56.67h321.62v-218.71Z"/>
</svg>